<svg data-v-2cb57da0="" version="1.0" xmlns="http://www.w3.org/2000/svg" xmlns:xlink="http://www.w3.org/1999/xlink" width="100%" height="100%" viewBox="0 0 340.000000 250.000000" preserveAspectRatio="xMidYMid meet" color-interpolation-filters="sRGB" style="margin: auto;"><rect data-v-2cb57da0="" x="0" y="0" width="100%" height="100%" fill="#140d0d" fill-opacity="0" class="background"/> <!----> <g data-v-2cb57da0="" fill="#f0c244" class="icon-text-wrapper icon-svg-group iconsvg" transform="translate(90.2550048828125,84.8969841003418)"><g class="iconsvg-imagesvg" transform="translate(0,12.14036750793457)"><g><rect fill="#f0c244" fill-opacity="0" stroke-width="2" x="0" y="0" width="60" height="55.925283820815395" class="image-rect"/> <svg filter="url(#colors1983912331)" x="0" y="0" width="60" height="55.925283820815395" filtersec="colorsf2751346585" class="image-svg-svg primary" style="overflow: visible;"><svg xmlns="http://www.w3.org/2000/svg" data-name="Layer 1" viewBox="1.5 4.770298480987549 97.04000091552734 90.44969940185547" x="0px" y="0px"><title>Artboard 2</title><path d="M20.74,31.18A29.68,29.68,0,0,1,48,4.85a29.22,29.22,0,0,1,22.17,7.85,29.46,29.46,0,0,1-2.87,45.43v4.78a2.5,2.5,0,0,1-5,0V57.78a4.4,4.4,0,0,1,1.88-3.57,24.46,24.46,0,0,0,2.58-37.86A24.24,24.24,0,0,0,48.31,9.83,24.46,24.46,0,0,0,35.92,54.2a4.42,4.42,0,0,1,1.9,3.58v5.12a2.5,2.5,0,0,1-5,0V58.13A29.6,29.6,0,0,1,20.74,31.18ZM35.32,70.09H64.77a2.5,2.5,0,0,1,2.5,2.5v6.57A10,10,0,0,1,61,88.35v1a5.88,5.88,0,0,1-5.87,5.87H45a5.88,5.88,0,0,1-5.87-5.87v-1a10,10,0,0,1-6.29-9.19V72.59A2.5,2.5,0,0,1,35.32,70.09Zm2.5,9.07A4.9,4.9,0,0,0,42,84a2.5,2.5,0,0,1,2.13,2.47v2.91a.87.87,0,0,0,.87.87H55.1a.87.87,0,0,0,.87-.87V86.45A2.5,2.5,0,0,1,58.11,84a4.9,4.9,0,0,0,4.16-4.82V75.09H37.82ZM12,36.78a2.5,2.5,0,0,0,0-5H4a2.5,2.5,0,1,0,0,5ZM9.17,14.68l7.47,4.9a2.5,2.5,0,0,0,2.74-4.18l-7.47-4.9a2.5,2.5,0,1,0-2.74,4.18Zm1.37,43.79a2.49,2.49,0,0,0,1.37-.41l7.47-4.9A2.5,2.5,0,1,0,16.64,49l-7.47,4.9a2.5,2.5,0,0,0,1.37,4.59Zm75-24.19a2.5,2.5,0,0,0,2.5,2.5h8a2.5,2.5,0,0,0,0-5H88A2.5,2.5,0,0,0,85.5,34.28ZM82,20a2.49,2.49,0,0,0,1.37-.41l7.47-4.9a2.5,2.5,0,0,0-2.74-4.18l-7.47,4.9A2.5,2.5,0,0,0,82,20Zm6.1,38.07a2.5,2.5,0,0,0,2.74-4.18L83.36,49a2.5,2.5,0,0,0-2.74,4.18ZM50.1,21.4a2.5,2.5,0,0,0-3.22,1.47l-4.46,12a2.5,2.5,0,0,0,2.34,3.37h7l-3.21,8.62a2.5,2.5,0,1,0,4.69,1.74l4.46-12a2.5,2.5,0,0,0-2.34-3.37h-7l3.21-8.62A2.5,2.5,0,0,0,50.1,21.4Z"/></svg></svg> <defs><filter id="colors1983912331"><feColorMatrix type="matrix" values="0 0 0 0 0.9375  0 0 0 0 0.7578125  0 0 0 0 0.265625  0 0 0 1 0" class="icon-fecolormatrix"/></filter> <filter id="colorsf2751346585"><feColorMatrix type="matrix" values="0 0 0 0 0.99609375  0 0 0 0 0.99609375  0 0 0 0 0.99609375  0 0 0 1 0" class="icon-fecolormatrix"/></filter> <filter id="colorsb2339959513"><feColorMatrix type="matrix" values="0 0 0 0 0  0 0 0 0 0  0 0 0 0 0  0 0 0 1 0" class="icon-fecolormatrix"/></filter></defs></g></g> <g transform="translate(67,0)"><g data-gra="path-name" fill-rule="" class="tp-name iconsvg-namesvg" transform="translate(0,0)"><g transform="scale(1)"><g><path d="M2.22-19.61L2.22-19.61Q2.22-29.33 5-35.34 7.78-41.35 13.19-44.21 18.6-47.07 26.53-47.07L26.53-47.07Q29.36-47.07 33.13-46.53L33.13-46.53 33.13-36.72Q29.96-37.32 26.25-37.32L26.25-37.32Q19.96-37.32 16.88-34.56 13.81-31.8 13.52-25.55L13.52-25.55 13.9-25.55Q16.76-30.94 23.07-30.94L23.07-30.94Q29.26-30.94 32.67-26.96 36.09-22.98 36.09-15.87L36.09-15.87Q36.09-8.22 31.77-3.79 27.45 0.63 19.71 0.63L19.71 0.63Q11.49 0.63 6.86-4.7 2.22-10.03 2.22-19.61ZM19.42-9.3L19.42-9.3Q21.42-9.3 22.68-10.81 23.93-12.31 23.93-15.62L23.93-15.62Q23.93-21.26 19.55-21.26L19.55-21.26Q17.39-21.26 16.04-19.8 14.69-18.34 14.69-16.25L14.69-16.25Q14.69-13.2 16-11.25 17.3-9.3 19.42-9.3ZM63.76-35.96L76.3-35.96 76.3-29.96 71.38-28.15Q72.4-26.31 72.4-23.87L72.4-23.87Q72.4-18.06 68.32-14.85 64.24-11.65 56.15-11.65L56.15-11.65Q54.15-11.65 52.97-11.9L52.97-11.9Q52.53-11.08 52.53-10.35L52.53-10.35Q52.53-9.43 54.02-8.93 55.51-8.44 57.92-8.44L57.92-8.44 63.89-8.44Q75.98-8.44 75.98 1.75L75.98 1.75Q75.98 8.32 70.38 11.97 64.78 15.62 54.65 15.62L54.65 15.62Q47 15.62 42.86 13.06 38.72 10.51 38.72 5.71L38.72 5.71Q38.72-0.73 46.72-2.6L46.72-2.6Q45.07-3.3 43.85-4.86 42.62-6.41 42.62-7.93L42.62-7.93Q42.62-9.62 43.54-10.9 44.47-12.19 47.39-13.96L47.39-13.96Q44.59-15.2 42.99-17.84 41.39-20.47 41.39-24.25L41.39-24.25Q41.39-30.12 45.39-33.36 49.38-36.59 56.81-36.59L56.81-36.59Q57.8-36.59 60.21-36.37 62.62-36.15 63.76-35.96L63.76-35.96ZM49.19 4.48L49.19 4.48Q49.19 6 50.84 6.93 52.5 7.87 55.26 7.87L55.26 7.87Q59.76 7.87 62.48 6.74 65.19 5.62 65.19 3.84L65.19 3.84Q65.19 2.41 63.54 1.82 61.89 1.24 58.81 1.24L58.81 1.24 53.96 1.24Q51.96 1.24 50.57 2.17 49.19 3.11 49.19 4.48ZM53.1-24.18L53.1-24.18Q53.1-18.66 56.94-18.66L56.94-18.66Q58.72-18.66 59.68-20.03 60.65-21.39 60.65-24.12L60.65-24.12Q60.65-29.71 56.94-29.71L56.94-29.71Q53.1-29.71 53.1-24.18ZM94.23-35.96L94.23 0 81.82 0 81.82-35.96 94.23-35.96ZM81.5-44.91L81.5-44.91Q81.5-47.7 83.06-49.07 84.61-50.43 88.07-50.43L88.07-50.43Q91.53-50.43 93.12-49.04 94.71-47.64 94.71-44.91L94.71-44.91Q94.71-39.45 88.07-39.45L88.07-39.45Q81.5-39.45 81.5-44.91Z" transform="translate(-2.2200000286102295, 50.43000030517578)"/></g> <!----> <!----> <!----> <!----> <!----> <!----> <!----></g></g> <g data-gra="path-slogan" fill-rule="" class="tp-slogan iconsvg-slogansvg" fill="#ec7210" transform="translate(5.000003814697266,72.05000305175781)"><rect x="0" height="1" y="3.580000400543213" width="26.084999084472656"/> <rect height="1" y="3.580000400543213" width="26.084999084472656" x="56.404998779296875"/> <g transform="translate(29.084999084472656,0)"><g transform="scale(1)"><path d="M0.78-0.60C0.78-0.38 0.85-0.21 0.99-0.07C1.13 0.07 1.30 0.14 1.50 0.14C1.69 0.14 1.86 0.07 2.00-0.07C2.14-0.21 2.21-0.38 2.21-0.60C2.21-0.83 2.14-1.02 2.00-1.16C1.86-1.30 1.69-1.37 1.50-1.37C1.30-1.37 1.13-1.30 0.99-1.16C0.85-1.02 0.78-0.83 0.78-0.60ZM3.61-3.94C3.61-3.30 3.70-2.72 3.87-2.21C4.04-1.71 4.28-1.28 4.59-0.93C4.90-0.58 5.26-0.32 5.68-0.13C6.10 0.05 6.56 0.14 7.06 0.14C7.56 0.14 8.01 0.04 8.40-0.16C8.79-0.36 9.14-0.64 9.46-1.00L8.89-1.61C8.64-1.33 8.37-1.11 8.08-0.96C7.80-0.81 7.46-0.73 7.08-0.73C6.70-0.73 6.37-0.81 6.07-0.96C5.77-1.11 5.51-1.33 5.30-1.61C5.10-1.89 4.93-2.23 4.82-2.62C4.70-3.02 4.64-3.46 4.64-3.96C4.64-4.45 4.70-4.89 4.82-5.28C4.94-5.67 5.11-6.01 5.33-6.28C5.54-6.56 5.80-6.77 6.11-6.92C6.41-7.07 6.75-7.14 7.13-7.14C7.46-7.14 7.76-7.07 8.01-6.94C8.26-6.81 8.49-6.63 8.70-6.41L9.26-7.04C9.03-7.30 8.74-7.53 8.38-7.72C8.02-7.92 7.60-8.02 7.12-8.02C6.61-8.02 6.15-7.92 5.72-7.73C5.29-7.55 4.92-7.28 4.61-6.92C4.30-6.57 4.05-6.14 3.88-5.64C3.70-5.14 3.61-4.57 3.61-3.94ZM13.48 0.14C13.97 0.14 14.43 0.05 14.84-0.14C15.25-0.34 15.61-0.61 15.91-0.97C16.21-1.32 16.44-1.75 16.60-2.26C16.77-2.77 16.85-3.34 16.85-3.97C16.85-4.60 16.77-5.16 16.60-5.66C16.44-6.16 16.21-6.58 15.91-6.93C15.61-7.28 15.25-7.55 14.84-7.73C14.43-7.92 13.97-8.02 13.48-8.02C12.98-8.02 12.53-7.92 12.11-7.74C11.70-7.56 11.35-7.29 11.05-6.94C10.76-6.59 10.53-6.17 10.36-5.67C10.20-5.17 10.12-4.60 10.12-3.97C10.12-3.34 10.20-2.77 10.36-2.26C10.53-1.75 10.76-1.32 11.05-0.97C11.35-0.61 11.70-0.34 12.11-0.14C12.53 0.05 12.98 0.14 13.48 0.14ZM13.48-0.73C13.12-0.73 12.81-0.81 12.52-0.96C12.24-1.11 11.99-1.33 11.79-1.61C11.59-1.90 11.43-2.24 11.32-2.63C11.20-3.03 11.15-3.48 11.15-3.97C11.15-4.46 11.20-4.90 11.32-5.29C11.43-5.68 11.59-6.02 11.79-6.29C11.99-6.56 12.24-6.77 12.52-6.92C12.81-7.07 13.12-7.14 13.48-7.14C13.83-7.14 14.15-7.07 14.43-6.92C14.71-6.77 14.96-6.56 15.16-6.29C15.37-6.02 15.52-5.68 15.64-5.29C15.75-4.90 15.80-4.46 15.80-3.97C15.80-3.48 15.75-3.03 15.64-2.63C15.52-2.24 15.37-1.90 15.16-1.61C14.96-1.33 14.71-1.11 14.43-0.96C14.15-0.81 13.83-0.73 13.48-0.73ZM18.54-7.87L18.54 0L19.46 0L19.46-4.33C19.46-4.68 19.45-5.07 19.42-5.50C19.38-5.92 19.36-6.31 19.33-6.66L19.38-6.66L20.00-4.91L21.53-0.79L22.09-0.79L23.60-4.91L24.24-6.66L24.29-6.66C24.26-6.31 24.23-5.92 24.20-5.50C24.17-5.07 24.16-4.68 24.16-4.33L24.16 0L25.10 0L25.10-7.87L23.93-7.87L22.42-3.65L21.86-2.04L21.82-2.04L21.24-3.65L19.72-7.87Z" transform="translate(-0.78, 8.016)"/></g></g></g></g></g><defs v-gra="od"/></svg>